<svg preserveAspectRatio="none" width="100%" height="100%" overflow="visible" style="display: block;" viewBox="0 0 192.771 51.915" fill="none" xmlns="http://www.w3.org/2000/svg">
<path id="Subtract" d="M178.771 0C186.502 0 192.771 6.26801 192.771 14V37.915C192.771 45.647 186.502 51.915 178.771 51.915H134.452L134.278 49.915H178.771C185.398 49.915 190.771 44.5425 190.771 37.915V14C190.771 7.37258 185.398 2 178.771 2H14C7.37258 2 2 7.37258 2 14V37.915C2 44.5425 7.37259 49.915 14 49.915H124.761L125.976 51.915H14C6.26802 51.915 0 45.647 0 37.915V14C0 6.26801 6.26801 4.06917e-07 14 0H178.771ZM132.438 51.8301L132.445 51.915H128.315L128.264 51.8301H132.438Z" fill="var(--fill-0, #D9D9D9)"/>
</svg>
