<svg preserveAspectRatio="none" width="100%" height="100%" overflow="visible" style="display: block;" viewBox="0 0 107.431 97.7448" fill="none" xmlns="http://www.w3.org/2000/svg">
<g id="rooty_thoughtful">
<g id="Group 1171277426" filter="url(#filter0_f_0_4)">
<g id="Ellipse 3336">
<path d="M80.9831 11.7774C79.8206 16.8479 75.1761 20.091 72.8641 19.5566C70.552 19.0223 70.5686 12.2599 71.7312 7.18946C72.8937 2.11899 76.3746 0.692177 78.6867 1.22649C81.7914 1.94462 82.1457 6.70697 80.9831 11.7774Z" fill="var(--fill-0, #85DA6B)"/>
<path d="M80.9831 11.7774C79.8206 16.8479 75.1761 20.091 72.8641 19.5566C70.552 19.0223 70.5686 12.2599 71.7312 7.18946C72.8937 2.11899 76.3746 0.692177 78.6867 1.22649C81.7914 1.94462 82.1457 6.70697 80.9831 11.7774Z" fill="url(#paint0_linear_0_4)" fill-opacity="0.4"/>
</g>
<g id="Ellipse 3337">
<path d="M88.6292 18.1388C83.7441 21.8378 78.8422 24.0616 76.8771 22.3282C74.9119 20.5948 78.2629 13.6206 82.0344 9.31098C86.6752 5.28914 90.5092 5.86553 92.4744 7.59891C95.1128 9.92714 94.1494 13.3324 88.6292 18.1388Z" fill="var(--fill-0, #85DA6B)"/>
<path d="M88.6292 18.1388C83.7441 21.8378 78.8422 24.0616 76.8771 22.3282C74.9119 20.5948 78.2629 13.6206 82.0344 9.31098C86.6752 5.28914 90.5092 5.86553 92.4744 7.59891C95.1128 9.92714 94.1494 13.3324 88.6292 18.1388Z" fill="url(#paint1_linear_0_4)" fill-opacity="0.4"/>
</g>
<g id="Ellipse 3338">
<path d="M89.9316 25.3693C84.7316 25.7809 80.6602 27.1773 79.8037 25.1706C78.9472 23.1639 84.0022 19.5038 88.3685 17.6254C93.2845 16.2754 95.9014 17.7167 96.7579 19.7235C97.9076 22.4185 96.1074 24.8805 89.9316 25.3693Z" fill="var(--fill-0, #85DA6B)"/>
<path d="M89.9316 25.3693C84.7316 25.7809 80.6602 27.1773 79.8037 25.1706C78.9472 23.1639 84.0022 19.5038 88.3685 17.6254C93.2845 16.2754 95.9014 17.7167 96.7579 19.7235C97.9076 22.4185 96.1074 24.8805 89.9316 25.3693Z" fill="url(#paint2_linear_0_4)" fill-opacity="0.4"/>
</g>
</g>
<path id="Union" d="M54.877 12.5006C82.1309 12.5007 104.225 34.5943 104.226 61.8483C104.226 89.1024 82.131 97.7448 54.877 97.7448C27.6231 97.7447 5.5293 89.1022 5.5293 61.8483C5.52944 34.5945 27.6231 12.5009 54.877 12.5006Z" fill="var(--fill-0, #88DC6B)"/>
<path id="smile" d="M50.4966 65.03C52.0703 67.0026 56.1086 69.7643 59.6726 65.03" stroke="var(--stroke-0, #081D00)" stroke-width="2.65972" stroke-linecap="round"/>
<path id="Vector 969" d="M87.2856 93.3462C73.341 56.0737 93.7219 47.0763 101.756 57.6536C107.35 65.0185 109.56 73.6027 104.913 86.8566L87.2856 93.3462Z" fill="var(--fill-0, #88DC6B)"/>
<path id="Vector 1014" d="M94.1623 54.4423C89.811 53.179 83.0734 59.2148 83.0734 68.479" stroke="var(--stroke-0, #5BAC40)" stroke-width="2.65972" stroke-linecap="round"/>
<path id="Vector 1035" d="M20.1456 93.3462C34.0902 56.0736 13.7093 47.0762 5.6753 57.6535C0.0812473 65.0185 -2.12892 73.6027 2.51848 86.8566L20.1456 93.3462Z" fill="var(--fill-0, #88DC6B)"/>
<path id="Vector 1036" d="M13.269 54.4424C17.6204 53.1791 24.358 59.2148 24.358 68.479" stroke="var(--stroke-0, #5BAC40)" stroke-width="2.65972" stroke-linecap="round"/>
<circle id="Ellipse 3401" cx="39.3142" cy="47.4365" r="5.25294" fill="var(--fill-0, #081D00)" stroke="var(--stroke-0, #081D00)" stroke-width="0.132986"/>
<circle id="Ellipse 3402" cx="68.0393" cy="47.4365" r="5.25294" fill="var(--fill-0, #081D00)" stroke="var(--stroke-0, #081D00)" stroke-width="0.132986"/>
<path id="glasses" d="M69.5301 39.7666C75.8537 39.9268 80.9305 45.1036 80.9305 51.4658L80.9266 51.7676C80.7663 58.091 75.5904 63.1677 69.2284 63.1679L68.9256 63.164C63.0492 63.0148 58.2514 58.5338 57.6024 52.7949H52.1288C51.4686 58.6319 46.5172 63.1677 40.5038 63.1679L40.201 63.164C33.9779 63.0062 28.9622 57.9907 28.8045 51.7676L28.8006 51.4658C28.8007 45.0026 34.0405 39.7627 40.5038 39.7627L40.8055 39.7666C46.682 39.9155 51.4784 44.397 52.1278 50.1357H57.6024C58.2628 44.2989 63.2151 39.7629 69.2284 39.7627L69.5301 39.7666ZM40.5038 42.6699C35.6463 42.6699 31.7079 46.6083 31.7079 51.4658C31.7081 56.3231 35.6464 60.2607 40.5038 60.2607C45.3609 60.2605 49.2985 56.323 49.2987 51.4658C49.2987 46.6085 45.361 42.6701 40.5038 42.6699ZM69.2284 42.6699C64.3711 42.6701 60.4325 46.6084 60.4325 51.4658C60.4327 56.323 64.3712 60.2605 69.2284 60.2607C74.0855 60.2605 78.0231 56.323 78.0233 51.4658C78.0233 46.6084 74.0857 42.6701 69.2284 42.6699Z" fill="var(--fill-0, #D2FFC2)"/>
</g>
<defs>
<filter id="filter0_f_0_4" x="70.8622" y="1.02308" width="26.32" height="25.3012" filterUnits="userSpaceOnUse" color-interpolation-filters="sRGB">
<feFlood flood-opacity="0" result="BackgroundImageFix"/>
<feBlend mode="normal" in="SourceGraphic" in2="BackgroundImageFix" result="shape"/>
<feGaussianBlur stdDeviation="0.0490767" result="effect1_foregroundBlur_0_4"/>
</filter>
<linearGradient id="paint0_linear_0_4" x1="78.2723" y1="1.13073" x2="76.6341" y2="18.0562" gradientUnits="userSpaceOnUse">
<stop offset="0.0416667" stop-color="#147B7B"/>
<stop offset="0.64378" stop-color="#8CE06B"/>
</linearGradient>
<linearGradient id="paint1_linear_0_4" x1="91.5802" y1="6.81017" x2="81.0239" y2="22.5501" gradientUnits="userSpaceOnUse">
<stop offset="0.0416667" stop-color="#147B7B"/>
<stop offset="0.64378" stop-color="#8CE06B"/>
</linearGradient>
<linearGradient id="paint2_linear_0_4" x1="96.3931" y1="18.8688" x2="82.9509" y2="26.9991" gradientUnits="userSpaceOnUse">
<stop offset="0.0416667" stop-color="#147B7B"/>
<stop offset="0.64378" stop-color="#8CE06B"/>
</linearGradient>
</defs>
</svg>
