<svg preserveAspectRatio="none" width="100%" height="100%" overflow="visible" style="display: block;" viewBox="0 0 63.0219 63.0219" fill="none" xmlns="http://www.w3.org/2000/svg">
<g id="Container">
<g clip-path="url(#clip0_0_4)">
<circle id="Ellipse 1779" cx="31.6377" cy="33.6435" r="31.511" fill="var(--fill-0, #0D3428)"/>
<g id="rooty_thoughtful">
<g id="Thought Bubble" filter="url(#filter0_f_0_4)">
<g id="Ellipse 3336">
<path d="M27.7771 23.3838C27.1924 25.9339 24.8566 27.5649 23.6938 27.2962C22.5311 27.0274 22.5394 23.6265 23.1241 21.0764C23.7088 18.5263 25.4594 17.8088 26.6222 18.0775C28.1836 18.4386 28.3618 20.8337 27.7771 23.3838Z" fill="var(--fill-0, #85DA6B)"/>
<path d="M27.7771 23.3838C27.1924 25.9339 24.8566 27.5649 23.6938 27.2962C22.5311 27.0274 22.5394 23.6265 23.1241 21.0764C23.7088 18.5263 25.4594 17.8088 26.6222 18.0775C28.1836 18.4386 28.3618 20.8337 27.7771 23.3838Z" fill="url(#paint0_linear_0_4)" fill-opacity="0.4"/>
</g>
<g id="Ellipse 3337">
<path d="M31.6223 26.583C29.1654 28.4433 26.7001 29.5617 25.7118 28.6899C24.7235 27.8182 26.4088 24.3107 28.3056 22.1433C30.6396 20.1206 32.5678 20.4105 33.5561 21.2822C34.883 22.4531 34.3985 24.1657 31.6223 26.583Z" fill="var(--fill-0, #85DA6B)"/>
<path d="M31.6223 26.583C29.1654 28.4433 26.7001 29.5617 25.7118 28.6899C24.7235 27.8182 26.4088 24.3107 28.3056 22.1433C30.6396 20.1206 32.5678 20.4105 33.5561 21.2822C34.883 22.4531 34.3985 24.1657 31.6223 26.583Z" fill="url(#paint1_linear_0_4)" fill-opacity="0.4"/>
</g>
<g id="Ellipse 3338">
<path d="M32.2773 30.2194C29.6621 30.4264 27.6145 31.1287 27.1838 30.1195C26.753 29.1102 29.2953 27.2695 31.4912 26.3248C33.9636 25.6458 35.2797 26.3707 35.7104 27.38C36.2886 28.7354 35.3833 29.9735 32.2773 30.2194Z" fill="var(--fill-0, #85DA6B)"/>
<path d="M32.2773 30.2194C29.6621 30.4264 27.6145 31.1287 27.1838 30.1195C26.753 29.1102 29.2953 27.2695 31.4912 26.3248C33.9636 25.6458 35.2797 26.3707 35.7104 27.38C36.2886 28.7354 35.3833 29.9735 32.2773 30.2194Z" fill="url(#paint2_linear_0_4)" fill-opacity="0.4"/>
</g>
</g>
<path id="Union" d="M14.6471 23.7474C27.5734 23.7474 38.1898 33.6297 39.357 46.2513C45.0157 61.4601 38.1902 62.6687 34.0524 61.3899C29.5048 65.1891 22.5028 66.6184 14.6471 66.6184C3.85744 66.6184 -5.32239 63.9244 -8.74159 56.0921C-12.3165 54.8653 -15.7752 52.0014 -14.3139 46.2083C-12.8021 40.2155 -9.28664 35.6961 -5.78065 34.47C-1.30247 27.9923 6.17613 23.7475 14.6471 23.7474Z" fill="var(--fill-0, #88DC6B)"/>
<path id="smile" d="M12.4443 50.1656C13.2358 51.1576 15.2667 52.5466 17.0592 50.1656" stroke="var(--stroke-0, #081D00)" stroke-width="1.33764" stroke-linecap="round"/>
<path id="Vector 1011" d="M-3.8982 35.5797C-0.902102 38.0052 -1.68679 44.4967 -5.53892 47.4215" stroke="var(--stroke-0, #5BAC40)" stroke-width="1.33764" stroke-linecap="round"/>
<path id="Vector 1014" d="M34.0456 50.9683C33.622 52.3839 32.9019 55.9911 33.4102 59.0944" stroke="var(--stroke-0, #5BAC40)" stroke-width="1.33764" stroke-linecap="round"/>
<circle id="Ellipse 3401" cx="8.5499" cy="42.3925" r="2.64183" fill="var(--fill-0, #081D00)" stroke="var(--stroke-0, #081D00)" stroke-width="0.0668818"/>
<circle id="Ellipse 3402" cx="22.9967" cy="42.3925" r="2.64183" fill="var(--fill-0, #081D00)" stroke="var(--stroke-0, #081D00)" stroke-width="0.0668818"/>
<path id="glasses" d="M22.1679 37.4659C25.2776 37.6235 27.7509 40.1949 27.7509 43.3438L27.743 43.6466C27.5854 46.7563 25.014 49.2295 21.8651 49.2296L21.5624 49.2217C18.6761 49.0754 16.3405 46.8495 16.0194 44.0128H13.2655C12.9333 46.9482 10.443 49.2295 7.41883 49.2296L7.11609 49.2217C4.10651 49.0693 1.69346 46.6561 1.5409 43.6466L1.53308 43.3438C1.53311 40.0933 4.16832 37.4581 7.41883 37.4581L7.72156 37.4659C10.6079 37.6122 12.9444 39.838 13.2655 42.6749H16.0184C16.3506 39.7395 18.841 37.4582 21.8651 37.4581L22.1679 37.4659ZM7.41883 38.92C4.9759 38.92 2.99502 40.9009 2.995 43.3438C2.99508 45.7867 4.97593 47.7667 7.41883 47.7667C9.86164 47.7666 11.8416 45.7866 11.8417 43.3438C11.8417 40.901 9.86167 38.9201 7.41883 38.92ZM21.8651 38.92C19.4223 38.9202 17.4413 40.901 17.4413 43.3438C17.4414 45.7866 19.4224 47.7665 21.8651 47.7667C24.3079 47.7666 26.2879 45.7866 26.288 43.3438C26.288 40.9009 24.308 38.9201 21.8651 38.92Z" fill="var(--fill-0, #D2FFC2)"/>
<circle id="Ellipse 3411" cx="38.2612" cy="32.2984" r="1.56938" fill="var(--fill-0, white)" stroke="var(--stroke-0, #CED4DA)" stroke-width="0.570685"/>
<circle id="Ellipse 3412" cx="41.6853" cy="28.0182" r="1.85473" fill="var(--fill-0, white)" stroke="var(--stroke-0, #CED4DA)" stroke-width="0.570685"/>
<g id="Union_2">
<mask id="path-15-inside-1_0_4" fill="white">
<path d="M45.823 12.6097C46.8009 12.6098 47.6511 13.1567 48.0847 13.9612C48.3972 13.8259 48.742 13.7513 49.1042 13.7513C50.2765 13.7513 51.2622 14.5373 51.57 15.6106C51.604 15.6093 51.6382 15.6058 51.6726 15.6058C53.0908 15.6058 54.2409 16.7559 54.2409 18.1741C54.2409 19.2475 53.5813 20.1654 52.6462 20.5491C52.7528 20.8312 52.8142 21.136 52.8142 21.4554C52.8142 22.8736 51.6641 24.0237 50.2458 24.0237C49.4499 24.0237 48.7384 23.6615 48.2673 23.0931C47.9364 24.1287 46.9683 24.879 45.823 24.8792C44.8798 24.8792 44.0576 24.3694 43.6111 23.6116C43.1646 24.3693 42.3432 24.8791 41.4001 24.8792C39.9818 24.8792 38.8318 23.7292 38.8318 22.3108C38.8318 22.1203 38.8539 21.9349 38.8933 21.7562C37.8643 21.4214 37.12 20.4563 37.1198 19.3157C37.1198 17.8974 38.2699 16.7474 39.6882 16.7474C39.7009 16.7474 39.7136 16.7482 39.7263 16.7483C39.7028 16.6086 39.6872 16.4651 39.6872 16.3187C39.6875 14.9006 40.8375 13.7513 42.2556 13.7513C42.7091 13.7513 43.1348 13.8692 43.5046 14.0755C43.9173 13.2092 44.7995 12.6097 45.823 12.6097Z"/>
</mask>
<path d="M45.823 12.6097C46.8009 12.6098 47.6511 13.1567 48.0847 13.9612C48.3972 13.8259 48.742 13.7513 49.1042 13.7513C50.2765 13.7513 51.2622 14.5373 51.57 15.6106C51.604 15.6093 51.6382 15.6058 51.6726 15.6058C53.0908 15.6058 54.2409 16.7559 54.2409 18.1741C54.2409 19.2475 53.5813 20.1654 52.6462 20.5491C52.7528 20.8312 52.8142 21.136 52.8142 21.4554C52.8142 22.8736 51.6641 24.0237 50.2458 24.0237C49.4499 24.0237 48.7384 23.6615 48.2673 23.0931C47.9364 24.1287 46.9683 24.879 45.823 24.8792C44.8798 24.8792 44.0576 24.3694 43.6111 23.6116C43.1646 24.3693 42.3432 24.8791 41.4001 24.8792C39.9818 24.8792 38.8318 23.7292 38.8318 22.3108C38.8318 22.1203 38.8539 21.9349 38.8933 21.7562C37.8643 21.4214 37.12 20.4563 37.1198 19.3157C37.1198 17.8974 38.2699 16.7474 39.6882 16.7474C39.7009 16.7474 39.7136 16.7482 39.7263 16.7483C39.7028 16.6086 39.6872 16.4651 39.6872 16.3187C39.6875 14.9006 40.8375 13.7513 42.2556 13.7513C42.7091 13.7513 43.1348 13.8692 43.5046 14.0755C43.9173 13.2092 44.7995 12.6097 45.823 12.6097Z" fill="var(--fill-0, white)"/>
<path d="M45.823 12.6097L45.8231 12.039H45.823V12.6097ZM48.0847 13.9612L47.5823 14.232L47.8308 14.693L48.3114 14.4849L48.0847 13.9612ZM49.1042 13.7513L49.1042 13.1806H49.1042V13.7513ZM51.57 15.6106L51.0215 15.768L51.1449 16.1985L51.5924 16.1809L51.57 15.6106ZM51.6726 15.6058L51.6726 15.0351H51.6726V15.6058ZM54.2409 18.1741L54.8116 18.1742V18.1741H54.2409ZM52.6462 20.5491L52.4295 20.0212L51.9163 20.2318L52.1123 20.7508L52.6462 20.5491ZM52.8142 21.4554L53.3849 21.4554V21.4554H52.8142ZM50.2458 24.0237V24.5944H50.2458L50.2458 24.0237ZM48.2673 23.0931L48.7067 22.7289L48.0411 21.9258L47.7237 22.9194L48.2673 23.0931ZM45.823 24.8792V25.4499H45.8231L45.823 24.8792ZM43.6111 23.6116L44.1027 23.3219L43.6111 22.4876L43.1194 23.3219L43.6111 23.6116ZM41.4001 24.8792V25.4499H41.4002L41.4001 24.8792ZM38.8318 22.3108L38.2611 22.3107V22.3108H38.8318ZM38.8933 21.7562L39.4506 21.879L39.562 21.3736L39.0698 21.2135L38.8933 21.7562ZM37.1198 19.3157H36.5492V19.3158L37.1198 19.3157ZM39.6882 16.7474L39.6883 16.1767H39.6882V16.7474ZM39.7263 16.7483L39.7179 17.319L40.4028 17.329L40.289 16.6535L39.7263 16.7483ZM39.6872 16.3187L39.1165 16.3186V16.3187H39.6872ZM42.2556 13.7513V13.1806H42.2556L42.2556 13.7513ZM43.5046 14.0755L43.2266 14.5739L43.7581 14.8704L44.0198 14.3209L43.5046 14.0755ZM45.823 12.6097L45.8229 13.1804C46.5827 13.1805 47.2443 13.6047 47.5823 14.232L48.0847 13.9612L48.5871 13.6905C48.0579 12.7087 47.0192 12.0392 45.8231 12.039L45.823 12.6097ZM48.0847 13.9612L48.3114 14.4849C48.5534 14.3802 48.821 14.322 49.1042 14.322V13.7513V13.1806C48.6629 13.1806 48.2411 13.2716 47.8579 13.4375L48.0847 13.9612ZM49.1042 13.7513L49.1042 14.322C50.0141 14.322 50.7817 14.9319 51.0215 15.768L51.57 15.6106L52.1186 15.4533C51.7428 14.1428 50.5388 13.1806 49.1042 13.1806L49.1042 13.7513ZM51.57 15.6106L51.5924 16.1809C51.6068 16.1803 51.62 16.1796 51.6304 16.1789C51.6356 16.1786 51.6406 16.1783 51.6448 16.178C51.6493 16.1778 51.6528 16.1775 51.6563 16.1773C51.671 16.1764 51.6737 16.1764 51.6726 16.1764V15.6058V15.0351C51.6371 15.0351 51.6056 15.0369 51.5861 15.0381C51.5614 15.0396 51.5562 15.0401 51.5477 15.0404L51.57 15.6106ZM51.6726 15.6058L51.6726 16.1764C52.7757 16.1765 53.6703 17.0711 53.6703 18.1741H54.2409H54.8116C54.8116 16.4406 53.406 15.0352 51.6726 15.0351L51.6726 15.6058ZM54.2409 18.1741L53.6703 18.1741C53.6702 19.0072 53.1587 19.7219 52.4295 20.0212L52.6462 20.5491L52.8629 21.0771C54.0039 20.6088 54.8116 19.4877 54.8116 18.1742L54.2409 18.1741ZM52.6462 20.5491L52.1123 20.7508C52.1964 20.9733 52.2435 21.2099 52.2435 21.4554H52.8142H53.3849C53.3849 21.0621 53.3091 20.6891 53.1801 20.3475L52.6462 20.5491ZM52.8142 21.4554L52.2435 21.4554C52.2435 22.5584 51.3489 23.453 50.2458 23.453L50.2458 24.0237L50.2458 24.5944C51.9792 24.5943 53.3849 23.1888 53.3849 21.4554L52.8142 21.4554ZM50.2458 24.0237V23.453C49.627 23.453 49.074 23.1721 48.7067 22.7289L48.2673 23.0931L47.8279 23.4572C48.4027 24.1508 49.2728 24.5944 50.2458 24.5944V24.0237ZM48.2673 23.0931L47.7237 22.9194C47.466 23.7261 46.7121 24.3084 45.8229 24.3085L45.823 24.8792L45.8231 25.4499C47.2244 25.4497 48.4069 24.5313 48.8109 23.2668L48.2673 23.0931ZM45.823 24.8792V24.3085C45.0912 24.3085 44.4515 23.9138 44.1027 23.3219L43.6111 23.6116L43.1194 23.9013C43.6637 24.825 44.6684 25.4499 45.823 25.4499V24.8792ZM43.6111 23.6116L43.1194 23.3219C42.7705 23.9138 42.1315 24.3085 41.4001 24.3085L41.4001 24.8792L41.4002 25.4499C42.5548 25.4498 43.5586 24.8247 44.1027 23.9014L43.6111 23.6116ZM41.4001 24.8792V24.3085C40.297 24.3085 39.4024 23.414 39.4024 22.3108H38.8318H38.2611C38.2611 24.0443 39.6666 25.4499 41.4001 25.4499V24.8792ZM38.8318 22.3108L39.4024 22.3109C39.4025 22.1646 39.4194 22.0204 39.4506 21.879L38.8933 21.7562L38.336 21.6333C38.2883 21.8493 38.2611 22.076 38.2611 22.3107L38.8318 22.3108ZM38.8933 21.7562L39.0698 21.2135C38.2683 20.9527 37.6907 20.2012 37.6905 19.3156L37.1198 19.3157L36.5492 19.3158C36.5494 20.7114 37.4603 21.8901 38.7167 22.2988L38.8933 21.7562ZM37.1198 19.3157H37.6905C37.6905 18.2126 38.5851 17.3181 39.6882 17.3181V16.7474V16.1767C37.9547 16.1767 36.5492 17.5822 36.5492 19.3157H37.1198ZM39.6882 16.7474L39.6881 17.3181C39.6837 17.3181 39.6815 17.3179 39.6874 17.3181C39.6892 17.3182 39.6944 17.3184 39.6988 17.3185C39.7037 17.3187 39.7104 17.3189 39.7179 17.319L39.7263 16.7483L39.7347 16.1777C39.7356 16.1777 39.7366 16.1778 39.7271 16.1774C39.7204 16.1772 39.7054 16.1767 39.6883 16.1767L39.6882 16.7474ZM39.7263 16.7483L40.289 16.6535C40.2692 16.5359 40.2579 16.4251 40.2579 16.3187H39.6872H39.1165C39.1165 16.505 39.1363 16.6813 39.1635 16.8431L39.7263 16.7483ZM39.6872 16.3187L40.2579 16.3188C40.2581 15.216 41.1525 14.322 42.2556 14.322L42.2556 13.7513L42.2556 13.1806C40.5225 13.1807 39.1169 14.5852 39.1165 16.3186L39.6872 16.3187ZM42.2556 13.7513V14.322C42.6088 14.322 42.9393 14.4136 43.2266 14.5739L43.5046 14.0755L43.7826 13.5771C43.3304 13.3249 42.8093 13.1806 42.2556 13.1806V13.7513ZM43.5046 14.0755L44.0198 14.3209C44.3417 13.6452 45.0285 13.1804 45.823 13.1804V12.6097V12.039C44.5705 12.039 43.4928 12.7733 42.9894 13.8301L43.5046 14.0755Z" fill="var(--stroke-0, #CED4DA)" mask="url(#path-15-inside-1_0_4)"/>
</g>
</g>
</g>
</g>
<defs>
<filter id="filter0_f_0_4" x="22.6871" y="17.9752" width="13.2368" height="12.7245" filterUnits="userSpaceOnUse" color-interpolation-filters="sRGB">
<feFlood flood-opacity="0" result="BackgroundImageFix"/>
<feBlend mode="normal" in="SourceGraphic" in2="BackgroundImageFix" result="shape"/>
<feGaussianBlur stdDeviation="0.0246819" result="effect1_foregroundBlur_0_4"/>
</filter>
<linearGradient id="paint0_linear_0_4" x1="26.4138" y1="18.0293" x2="25.5899" y2="26.5416" gradientUnits="userSpaceOnUse">
<stop offset="0.0416667" stop-color="#147B7B"/>
<stop offset="0.64378" stop-color="#8CE06B"/>
</linearGradient>
<linearGradient id="paint1_linear_0_4" x1="33.1064" y1="20.8855" x2="27.7974" y2="28.8015" gradientUnits="userSpaceOnUse">
<stop offset="0.0416667" stop-color="#147B7B"/>
<stop offset="0.64378" stop-color="#8CE06B"/>
</linearGradient>
<linearGradient id="paint2_linear_0_4" x1="35.527" y1="26.9501" x2="28.7666" y2="31.0391" gradientUnits="userSpaceOnUse">
<stop offset="0.0416667" stop-color="#147B7B"/>
<stop offset="0.64378" stop-color="#8CE06B"/>
</linearGradient>
<clipPath id="clip0_0_4">
<rect width="63.0219" height="63.0219" rx="31.511" fill="white"/>
</clipPath>
</defs>
</svg>
